<mxfile host="app.diagrams.net" agent="Mozilla/5.0 (Windows NT 10.0; Win64; x64) AppleWebKit/537.36 (KHTML, like Gecko) Chrome/137.0.0.0 Safari/537.36" version="27.1.5">
  <diagram name="Page-1" id="b5b7bab2-c9e2-2cf4-8b2a-24fd1a2a6d21">
    <mxGraphModel dx="1205" dy="689" grid="1" gridSize="10" guides="1" tooltips="1" connect="1" arrows="1" fold="1" page="1" pageScale="1" pageWidth="827" pageHeight="1169" background="none" math="0" shadow="0">
      <root>
        <mxCell id="0" />
        <mxCell id="1" parent="0" />
        <mxCell id="OwXfaqXqaOUbmEDGaeBA-45" value="Kriteria" style="swimlane;childLayout=stackLayout;horizontal=1;startSize=50;horizontalStack=0;rounded=1;fontSize=14;fontStyle=0;strokeWidth=2;resizeParent=0;resizeLast=1;shadow=0;dashed=0;align=center;arcSize=4;whiteSpace=wrap;html=1;fontFamily=Times New Roman;" parent="1" vertex="1">
          <mxGeometry x="700" y="260" width="160" height="190" as="geometry" />
        </mxCell>
        <mxCell id="OwXfaqXqaOUbmEDGaeBA-46" value="+ id : int&lt;br&gt;+ nama : string&lt;br&gt;+ tipe : string&lt;div&gt;+ bobot : float&lt;br&gt;&lt;div&gt;&lt;br&gt;&lt;/div&gt;&lt;div&gt;+ hitungBobot()&lt;/div&gt;&lt;div&gt;+ saveData()&lt;/div&gt;&lt;/div&gt;" style="align=left;strokeColor=none;fillColor=none;spacingLeft=4;spacingRight=4;fontSize=14;verticalAlign=top;resizable=0;rotatable=0;part=1;html=1;whiteSpace=wrap;fontFamily=Times New Roman;" parent="OwXfaqXqaOUbmEDGaeBA-45" vertex="1">
          <mxGeometry y="50" width="160" height="140" as="geometry" />
        </mxCell>
        <mxCell id="OwXfaqXqaOUbmEDGaeBA-78" value="Alternatif" style="swimlane;childLayout=stackLayout;horizontal=1;startSize=50;horizontalStack=0;rounded=1;fontSize=14;fontStyle=0;strokeWidth=2;resizeParent=0;resizeLast=1;shadow=0;dashed=0;align=center;arcSize=4;whiteSpace=wrap;html=1;fontFamily=Times New Roman;" parent="1" vertex="1">
          <mxGeometry x="960" y="80" width="160" height="150" as="geometry" />
        </mxCell>
        <mxCell id="OwXfaqXqaOUbmEDGaeBA-79" value="+ id : int&lt;br&gt;+ nama : string&lt;div&gt;&lt;br&gt;&lt;/div&gt;&lt;div&gt;+ getData()&lt;/div&gt;&lt;div&gt;+ saveData()&lt;/div&gt;" style="align=left;strokeColor=none;fillColor=none;spacingLeft=4;spacingRight=4;fontSize=14;verticalAlign=top;resizable=0;rotatable=0;part=1;html=1;whiteSpace=wrap;fontFamily=Times New Roman;" parent="OwXfaqXqaOUbmEDGaeBA-78" vertex="1">
          <mxGeometry y="50" width="160" height="100" as="geometry" />
        </mxCell>
        <mxCell id="OwXfaqXqaOUbmEDGaeBA-80" value="ROC" style="swimlane;childLayout=stackLayout;horizontal=1;startSize=50;horizontalStack=0;rounded=1;fontSize=14;fontStyle=0;strokeWidth=2;resizeParent=0;resizeLast=1;shadow=0;dashed=0;align=center;arcSize=4;whiteSpace=wrap;html=1;fontFamily=Times New Roman;" parent="1" vertex="1">
          <mxGeometry x="700" y="490" width="160" height="100" as="geometry" />
        </mxCell>
        <mxCell id="OwXfaqXqaOUbmEDGaeBA-81" value="+ hitungBobot()" style="align=left;strokeColor=none;fillColor=none;spacingLeft=4;spacingRight=4;fontSize=14;verticalAlign=top;resizable=0;rotatable=0;part=1;html=1;whiteSpace=wrap;fontFamily=Times New Roman;" parent="OwXfaqXqaOUbmEDGaeBA-80" vertex="1">
          <mxGeometry y="50" width="160" height="50" as="geometry" />
        </mxCell>
        <mxCell id="OwXfaqXqaOUbmEDGaeBA-82" value="WASPAS" style="swimlane;childLayout=stackLayout;horizontal=1;startSize=50;horizontalStack=0;rounded=1;fontSize=14;fontStyle=0;strokeWidth=2;resizeParent=0;resizeLast=1;shadow=0;dashed=0;align=center;arcSize=4;whiteSpace=wrap;html=1;fontFamily=Times New Roman;" parent="1" vertex="1">
          <mxGeometry x="960" y="490" width="160" height="100" as="geometry" />
        </mxCell>
        <mxCell id="OwXfaqXqaOUbmEDGaeBA-83" value="+ hitungRangking()" style="align=left;strokeColor=none;fillColor=none;spacingLeft=4;spacingRight=4;fontSize=14;verticalAlign=top;resizable=0;rotatable=0;part=1;html=1;whiteSpace=wrap;fontFamily=Times New Roman;" parent="OwXfaqXqaOUbmEDGaeBA-82" vertex="1">
          <mxGeometry y="50" width="160" height="50" as="geometry" />
        </mxCell>
        <mxCell id="u1b7O-U8P6rgNQdAM5RY-1" value="Penilaian" style="swimlane;childLayout=stackLayout;horizontal=1;startSize=50;horizontalStack=0;rounded=1;fontSize=14;fontStyle=0;strokeWidth=2;resizeParent=0;resizeLast=1;shadow=0;dashed=0;align=center;arcSize=4;whiteSpace=wrap;html=1;fontFamily=Times New Roman;" vertex="1" parent="1">
          <mxGeometry x="960" y="285" width="160" height="140" as="geometry" />
        </mxCell>
        <mxCell id="u1b7O-U8P6rgNQdAM5RY-2" value="+ id : int&lt;br&gt;+ alternatifId : int&lt;br&gt;+ kriteriaId : int&lt;div&gt;+ bobot : float&lt;/div&gt;" style="align=left;strokeColor=none;fillColor=none;spacingLeft=4;spacingRight=4;fontSize=14;verticalAlign=top;resizable=0;rotatable=0;part=1;html=1;whiteSpace=wrap;fontFamily=Times New Roman;" vertex="1" parent="u1b7O-U8P6rgNQdAM5RY-1">
          <mxGeometry y="50" width="160" height="90" as="geometry" />
        </mxCell>
        <mxCell id="u1b7O-U8P6rgNQdAM5RY-5" style="edgeStyle=orthogonalEdgeStyle;rounded=0;orthogonalLoop=1;jettySize=auto;html=1;entryX=0.5;entryY=0;entryDx=0;entryDy=0;" edge="1" parent="1" source="OwXfaqXqaOUbmEDGaeBA-46" target="OwXfaqXqaOUbmEDGaeBA-80">
          <mxGeometry relative="1" as="geometry" />
        </mxCell>
        <mxCell id="u1b7O-U8P6rgNQdAM5RY-7" style="edgeStyle=orthogonalEdgeStyle;rounded=0;orthogonalLoop=1;jettySize=auto;html=1;entryX=0;entryY=0.5;entryDx=0;entryDy=0;" edge="1" parent="1" source="OwXfaqXqaOUbmEDGaeBA-46" target="u1b7O-U8P6rgNQdAM5RY-2">
          <mxGeometry relative="1" as="geometry" />
        </mxCell>
        <mxCell id="u1b7O-U8P6rgNQdAM5RY-8" style="edgeStyle=orthogonalEdgeStyle;rounded=0;orthogonalLoop=1;jettySize=auto;html=1;entryX=0.5;entryY=0;entryDx=0;entryDy=0;" edge="1" parent="1" source="u1b7O-U8P6rgNQdAM5RY-2" target="OwXfaqXqaOUbmEDGaeBA-82">
          <mxGeometry relative="1" as="geometry" />
        </mxCell>
        <mxCell id="u1b7O-U8P6rgNQdAM5RY-9" style="edgeStyle=orthogonalEdgeStyle;rounded=0;orthogonalLoop=1;jettySize=auto;html=1;entryX=0.5;entryY=0;entryDx=0;entryDy=0;" edge="1" parent="1" source="OwXfaqXqaOUbmEDGaeBA-79" target="u1b7O-U8P6rgNQdAM5RY-1">
          <mxGeometry relative="1" as="geometry" />
        </mxCell>
      </root>
    </mxGraphModel>
  </diagram>
</mxfile>
